<svg width="410" height="99" viewBox="0 0 410 99" fill="none" xmlns="http://www.w3.org/2000/svg">
<path d="M118.398 23.6992H130.198V74.5992H118.398V23.6992Z" fill="white"/>
<path d="M188.899 23.6992V74.5992H179.199L153.799 43.6992V74.5992H142.199V23.6992H151.899L177.199 54.5992V23.6992H188.899Z" fill="white"/>
<path d="M211.297 72.0992C207.097 69.7992 203.797 66.6992 201.397 62.6992C198.997 58.6992 197.797 54.1992 197.797 49.0992C197.797 44.0992 198.997 39.4992 201.397 35.4992C203.797 31.4992 207.097 28.3992 211.297 26.0992C215.497 23.7992 220.197 22.6992 225.397 22.6992C229.797 22.6992 233.797 23.4992 237.397 24.9992C240.997 26.5992 243.997 28.7992 246.397 31.6992L238.797 38.6992C235.397 34.6992 231.097 32.6992 225.997 32.6992C222.797 32.6992 219.997 33.3992 217.597 34.7992C215.097 36.1992 213.197 38.0992 211.797 40.5992C210.397 43.0992 209.697 45.8992 209.697 48.9992C209.697 52.1992 210.397 54.9992 211.797 57.3992C213.197 59.8992 215.097 61.7992 217.597 63.1992C220.097 64.5992 222.897 65.2992 225.997 65.2992C231.097 65.2992 235.397 63.2992 238.797 59.2992L246.397 66.2992C243.997 69.2992 240.997 71.4992 237.397 73.0992C233.797 74.6992 229.797 75.3992 225.397 75.3992C220.197 75.4992 215.497 74.3992 211.297 72.0992Z" fill="white"/>
<path d="M286.798 63.6992H263.198L258.698 74.5992H246.598L269.298 23.6992H280.898L303.698 74.5992H291.298L286.798 63.6992ZM283.098 54.7992L274.998 35.2992L266.898 54.7992H283.098Z" fill="white"/>
<path d="M342.8 25.9992C346.1 27.4992 348.7 29.5992 350.5 32.3992C352.3 35.1992 353.2 38.3992 353.2 42.1992C353.2 45.8992 352.3 49.1992 350.5 51.9992C348.7 54.7992 346.1 56.8992 342.8 58.3992C339.5 59.8992 335.6 60.5992 331.1 60.5992H320.8V74.5992H309V23.6992H331C335.5 23.6992 339.4 24.4992 342.8 25.9992ZM338.4 48.6992C340.2 47.1992 341.2 44.9992 341.2 42.1992C341.2 39.2992 340.3 37.0992 338.4 35.5992C336.6 34.0992 333.9 33.2992 330.3 33.2992H320.7V50.9992H330.3C333.9 50.9992 336.6 50.1992 338.4 48.6992Z" fill="white"/>
<path d="M392.497 63.6992H368.897L364.397 74.5992H352.297L374.997 23.6992H386.597L409.397 74.5992H396.997L392.497 63.6992ZM388.797 54.7992L380.697 35.2992L372.597 54.7992H388.797Z" fill="white"/>
<path d="M49.8992 17.3994C32.3992 17.3994 18.1992 31.5994 18.1992 49.0994C18.1992 66.5994 32.3992 80.7994 49.8992 80.7994C67.3992 80.7994 81.5992 66.5994 81.5992 49.0994C81.5992 31.5994 67.3992 17.3994 49.8992 17.3994ZM49.8992 72.8994C36.7992 72.8994 26.1992 62.2994 26.1992 49.1994C26.1992 36.0994 36.7992 25.4994 49.8992 25.4994C61.5992 25.4994 71.3992 33.9994 73.2992 45.1994H64.7992C62.9992 38.5994 56.9992 33.6994 49.8992 33.6994C41.3992 33.6994 34.4992 40.5994 34.4992 49.0994C34.4992 57.5994 41.3992 64.4994 49.8992 64.4994C56.9992 64.4994 62.9992 59.6994 64.7992 53.0994H73.2992C71.2992 64.2994 61.5992 72.8994 49.8992 72.8994ZM57.2992 49.0994C57.2992 53.1994 53.9992 56.4994 49.8992 56.4994C45.7992 56.4994 42.4992 53.1994 42.4992 49.0994C42.4992 44.9994 45.7992 41.6994 49.8992 41.6994C53.9992 41.6994 57.2992 45.0994 57.2992 49.0994Z" fill="white"/>
<path d="M49.8984 0.0996094C22.8984 0.0996094 0.898438 22.0996 0.898438 49.0996C0.898438 76.0996 22.8984 98.0996 49.8984 98.0996C76.8984 98.0996 98.8984 76.0996 98.8984 49.0996C98.8984 22.0996 76.8984 0.0996094 49.8984 0.0996094ZM49.8984 90.0996C27.2984 90.0996 8.89844 71.6996 8.89844 49.0996C8.89844 26.4996 27.2984 8.09961 49.8984 8.09961C72.4984 8.09961 90.8984 26.4996 90.8984 49.0996C90.8984 71.6996 72.4984 90.0996 49.8984 90.0996Z" fill="white"/>
</svg>
